<svg width="32" height="32" viewBox="0 0 20 24" fill="none" xmlns="http://www.w3.org/2000/svg">
<path d="M18.5714 0H1.42858C0.954477 0 0.571442 0.383036 0.571442 0.857143V23.1429C0.571442 23.617 0.954477 24 1.42858 24H18.5714C19.0455 24 19.4286 23.617 19.4286 23.1429V0.857143C19.4286 0.383036 19.0455 0 18.5714 0ZM17.5 22.0714H2.50001V16.6875H5.12233C5.43305 17.5661 5.97948 18.3563 6.70537 18.9563C7.62948 19.7196 8.80001 20.1429 10 20.1429C11.2 20.1429 12.3705 19.7223 13.2947 18.9563C14.0205 18.3563 14.567 17.5661 14.8777 16.6875H17.5V15H13.525L13.3857 15.6616C13.0643 17.2634 11.6393 18.4286 10 18.4286C8.36073 18.4286 6.93573 17.2634 6.61162 15.6616L6.47233 15H2.50001V1.92857H17.5V22.0714ZM4.85716 7.41964H15.1429C15.2607 7.41964 15.3572 7.32321 15.3572 7.20536V5.91964C15.3572 5.80179 15.2607 5.70536 15.1429 5.70536H4.85716C4.7393 5.70536 4.64287 5.80179 4.64287 5.91964V7.20536C4.64287 7.32321 4.7393 7.41964 4.85716 7.41964ZM4.85716 11.7054H15.1429C15.2607 11.7054 15.3572 11.6089 15.3572 11.4911V10.2054C15.3572 10.0875 15.2607 9.99107 15.1429 9.99107H4.85716C4.7393 9.99107 4.64287 10.0875 4.64287 10.2054V11.4911C4.64287 11.6089 4.7393 11.7054 4.85716 11.7054Z" fill="black"/>
</svg>
