<svg width="24" height="24" viewBox="0 0 24 24" fill="none" xmlns="http://www.w3.org/2000/svg">
<g clip-path="url(#clip0_46_600)">
<path d="M13.6339 9.5625C13.0152 9.5625 12.5357 10.042 12.5357 10.6339C12.5357 11.2259 13.0152 11.7054 13.6339 11.7054C14.1991 11.7054 14.6786 11.2259 14.6786 10.6339C14.6786 10.042 14.1991 9.5625 13.6339 9.5625ZM6.13392 9.5625C5.51517 9.5625 5.03571 10.042 5.03571 10.6339C5.03571 11.2259 5.51517 11.7054 6.13392 11.7054C6.6991 11.7054 7.17856 11.2259 7.17856 10.6339C7.17856 10.042 6.6991 9.5625 6.13392 9.5625Z" fill="black"/>
<path d="M22.2323 7.52683C20.993 5.82096 19.206 4.59184 17.1698 4.04469V4.04737C16.7117 3.53844 16.1948 3.06969 15.6162 2.65183C11.2314 -0.535667 5.07602 0.436655 1.87513 4.82148C-0.704334 8.38398 -0.594512 13.1759 2.03585 16.5804L2.05727 20.1322C2.05727 20.2179 2.07067 20.3036 2.09745 20.384C2.13114 20.4913 2.18567 20.591 2.2579 20.6772C2.33014 20.7634 2.41867 20.8346 2.51843 20.8866C2.6182 20.9386 2.72723 20.9704 2.8393 20.9802C2.95137 20.99 3.06428 20.9777 3.17156 20.9438L6.56263 19.875C7.45995 20.1938 8.38674 20.3759 9.30817 20.4268L9.29478 20.4375C11.6814 22.1759 14.81 22.6983 17.6787 21.75L21.0832 22.859C21.1689 22.8858 21.2573 22.9018 21.3483 22.9018C21.8225 22.9018 22.2055 22.5188 22.2055 22.0447V18.4554C24.5653 15.2518 24.6269 10.8242 22.2323 7.52683ZM6.93763 17.9733L6.6162 17.8393L3.96442 18.6697L3.93763 15.884L3.72335 15.6429C1.45727 12.8786 1.30727 8.89558 3.4287 5.97326C6.01085 2.43219 10.9608 1.65005 14.4912 4.2054C18.0323 6.77951 18.8171 11.7215 16.2591 15.2411C14.1135 18.1849 10.2725 19.2724 6.93763 17.9733ZM20.4644 17.5179L20.2501 17.7858L20.2769 20.5715L17.6519 19.6875L17.3305 19.8215C15.8305 20.3786 14.2314 20.4242 12.7501 20.009L12.7448 20.0063C14.7806 19.382 16.5589 18.114 17.8126 16.3929C19.8591 13.5724 20.1912 10.0286 19.0019 7.00719L19.018 7.0179C19.6341 7.45987 20.1992 8.01165 20.6787 8.67862C22.6233 11.3465 22.5135 14.9786 20.4644 17.5179Z" fill="black"/>
<path d="M9.88392 9.5625C9.26517 9.5625 8.78571 10.042 8.78571 10.6339C8.78571 11.2259 9.26517 11.7054 9.88392 11.7054C10.4491 11.7054 10.9286 11.2259 10.9286 10.6339C10.9286 10.042 10.4491 9.5625 9.88392 9.5625Z" fill="black"/>
</g>
<defs>
<clipPath id="clip0_46_600">
<rect width="24" height="24" fill="white"/>
</clipPath>
</defs>
</svg>
