<svg width="32" height="42" viewBox="0 0 32 42" fill="none" xmlns="http://www.w3.org/2000/svg">
<path d="M30.25 33H29.125V17.0625C29.125 10.4484 24.2359 4.98281 17.875 4.07344V2.25C17.875 1.21406 17.0359 0.375 16 0.375C14.9641 0.375 14.125 1.21406 14.125 2.25V4.07344C7.76406 4.98281 2.875 10.4484 2.875 17.0625V33H1.75C0.920313 33 0.25 33.6703 0.25 34.5V36C0.25 36.2063 0.41875 36.375 0.625 36.375H10.75C10.75 39.2719 13.1031 41.625 16 41.625C18.8969 41.625 21.25 39.2719 21.25 36.375H31.375C31.5813 36.375 31.75 36.2063 31.75 36V34.5C31.75 33.6703 31.0797 33 30.25 33ZM16 38.625C14.7578 38.625 13.75 37.6172 13.75 36.375H18.25C18.25 37.6172 17.2422 38.625 16 38.625ZM6.25 33V17.0625C6.25 14.4563 7.2625 12.0094 9.10469 10.1672C10.9469 8.325 13.3938 7.3125 16 7.3125C18.6063 7.3125 21.0531 8.325 22.8953 10.1672C24.7375 12.0094 25.75 14.4563 25.75 17.0625V33H6.25Z" fill="#5DB075"/>
</svg>
